<mxfile host="app.diagrams.net" modified="2024-06-13T14:59:35.310Z" agent="Mozilla/5.0 (Windows NT 10.0; Win64; x64) AppleWebKit/537.36 (KHTML, like Gecko) Chrome/125.0.0.0 Safari/537.36" etag="oQk7uGaDc7hH0hjfb6eC" version="24.5.4" type="github">
  <diagram name="Page-1" id="sLg9GkTvKmtIcPhkRy6P">
    <mxGraphModel dx="1050" dy="522" grid="1" gridSize="10" guides="1" tooltips="1" connect="1" arrows="1" fold="1" page="1" pageScale="1" pageWidth="827" pageHeight="1169" math="1" shadow="0">
      <root>
        <mxCell id="0" />
        <mxCell id="1" parent="0" />
        <mxCell id="I018d0j3AjAdzXmvruOZ-1" value="" style="rounded=1;whiteSpace=wrap;html=1;dashed=1;strokeWidth=2;" vertex="1" parent="1">
          <mxGeometry x="380" y="330" width="570" height="170" as="geometry" />
        </mxCell>
        <mxCell id="I018d0j3AjAdzXmvruOZ-197" value="" style="rounded=1;whiteSpace=wrap;html=1;fillColor=#E0EBFF;" vertex="1" parent="1">
          <mxGeometry x="785" y="350" width="60" height="130" as="geometry" />
        </mxCell>
        <mxCell id="I018d0j3AjAdzXmvruOZ-2" value="" style="rounded=1;whiteSpace=wrap;html=1;dashed=1;strokeWidth=2;" vertex="1" parent="1">
          <mxGeometry x="370" y="50" width="550" height="140" as="geometry" />
        </mxCell>
        <mxCell id="I018d0j3AjAdzXmvruOZ-141" value="" style="rounded=1;whiteSpace=wrap;html=1;fillColor=#E0EBFF;" vertex="1" parent="1">
          <mxGeometry x="640" y="82.5" width="120" height="85" as="geometry" />
        </mxCell>
        <mxCell id="I018d0j3AjAdzXmvruOZ-3" value="" style="ellipse;whiteSpace=wrap;html=1;aspect=fixed;fillColor=#000000;" vertex="1" parent="1">
          <mxGeometry x="300" y="175" width="60" height="60" as="geometry" />
        </mxCell>
        <mxCell id="I018d0j3AjAdzXmvruOZ-4" value="" style="endArrow=none;html=1;rounded=0;strokeColor=#FFFFFF;strokeWidth=8;" edge="1" parent="1">
          <mxGeometry width="50" height="50" relative="1" as="geometry">
            <mxPoint x="315" y="190" as="sourcePoint" />
            <mxPoint x="345" y="220" as="targetPoint" />
          </mxGeometry>
        </mxCell>
        <mxCell id="I018d0j3AjAdzXmvruOZ-5" value="" style="endArrow=none;html=1;rounded=0;strokeColor=#FFFFFF;strokeWidth=8;" edge="1" parent="1">
          <mxGeometry width="50" height="50" relative="1" as="geometry">
            <mxPoint x="315" y="220" as="sourcePoint" />
            <mxPoint x="345" y="190" as="targetPoint" />
          </mxGeometry>
        </mxCell>
        <mxCell id="I018d0j3AjAdzXmvruOZ-6" value="" style="ellipse;whiteSpace=wrap;html=1;aspect=fixed;fillColor=#000000;" vertex="1" parent="1">
          <mxGeometry x="300" y="287.5" width="60" height="60" as="geometry" />
        </mxCell>
        <mxCell id="I018d0j3AjAdzXmvruOZ-7" value="" style="endArrow=none;html=1;rounded=0;strokeColor=#FFFFFF;strokeWidth=8;" edge="1" parent="1">
          <mxGeometry width="50" height="50" relative="1" as="geometry">
            <mxPoint x="315" y="302.5" as="sourcePoint" />
            <mxPoint x="345" y="332.5" as="targetPoint" />
          </mxGeometry>
        </mxCell>
        <mxCell id="I018d0j3AjAdzXmvruOZ-8" value="" style="endArrow=none;html=1;rounded=0;strokeColor=#FFFFFF;strokeWidth=8;" edge="1" parent="1">
          <mxGeometry width="50" height="50" relative="1" as="geometry">
            <mxPoint x="315" y="332.5" as="sourcePoint" />
            <mxPoint x="345" y="302.5" as="targetPoint" />
          </mxGeometry>
        </mxCell>
        <mxCell id="I018d0j3AjAdzXmvruOZ-56" value="" style="edgeStyle=segmentEdgeStyle;endArrow=classic;html=1;curved=0;rounded=0;endSize=8;startSize=8;exitX=0.5;exitY=0;exitDx=0;exitDy=0;strokeWidth=3;entryX=0;entryY=0.5;entryDx=0;entryDy=0;" edge="1" parent="1" source="I018d0j3AjAdzXmvruOZ-3" target="I018d0j3AjAdzXmvruOZ-2">
          <mxGeometry width="50" height="50" relative="1" as="geometry">
            <mxPoint x="240" y="140" as="sourcePoint" />
            <mxPoint x="390" y="59.6" as="targetPoint" />
            <Array as="points">
              <mxPoint x="330" y="120" />
            </Array>
          </mxGeometry>
        </mxCell>
        <mxCell id="I018d0j3AjAdzXmvruOZ-57" value="" style="endArrow=classic;startArrow=classic;html=1;rounded=0;exitX=0.5;exitY=0;exitDx=0;exitDy=0;entryX=0.5;entryY=1;entryDx=0;entryDy=0;strokeWidth=3;" edge="1" parent="1" source="I018d0j3AjAdzXmvruOZ-6" target="I018d0j3AjAdzXmvruOZ-3">
          <mxGeometry width="50" height="50" relative="1" as="geometry">
            <mxPoint x="490" y="270" as="sourcePoint" />
            <mxPoint x="540" y="220" as="targetPoint" />
          </mxGeometry>
        </mxCell>
        <mxCell id="I018d0j3AjAdzXmvruOZ-61" value="" style="edgeStyle=segmentEdgeStyle;endArrow=classic;html=1;curved=0;rounded=0;endSize=8;startSize=8;strokeWidth=3;entryX=0;entryY=0.5;entryDx=0;entryDy=0;exitX=0.5;exitY=1;exitDx=0;exitDy=0;" edge="1" parent="1" source="I018d0j3AjAdzXmvruOZ-6" target="I018d0j3AjAdzXmvruOZ-1">
          <mxGeometry width="50" height="50" relative="1" as="geometry">
            <mxPoint x="330" y="350" as="sourcePoint" />
            <mxPoint x="380" y="485" as="targetPoint" />
            <Array as="points">
              <mxPoint x="330" y="415" />
            </Array>
          </mxGeometry>
        </mxCell>
        <mxCell id="I018d0j3AjAdzXmvruOZ-63" value="" style="endArrow=classic;html=1;rounded=0;strokeWidth=3;" edge="1" parent="1">
          <mxGeometry width="50" height="50" relative="1" as="geometry">
            <mxPoint x="230" y="260" as="sourcePoint" />
            <mxPoint x="330" y="260" as="targetPoint" />
          </mxGeometry>
        </mxCell>
        <mxCell id="I018d0j3AjAdzXmvruOZ-64" value="&lt;font style=&quot;font-size: 14px;&quot; face=&quot;Times New Roman&quot;&gt;&lt;b&gt;Input&amp;nbsp;&lt;br&gt;Signal&lt;/b&gt;&lt;/font&gt;" style="text;html=1;align=center;verticalAlign=middle;whiteSpace=wrap;rounded=0;" vertex="1" parent="1">
          <mxGeometry x="180" y="240" width="60" height="30" as="geometry" />
        </mxCell>
        <mxCell id="I018d0j3AjAdzXmvruOZ-65" value="&lt;b style=&quot;border-color: var(--border-color); font-family: &amp;quot;Times New Roman&amp;quot;; font-size: 14px;&quot;&gt;Prompt code&lt;/b&gt;" style="text;html=1;align=center;verticalAlign=middle;whiteSpace=wrap;rounded=0;" vertex="1" parent="1">
          <mxGeometry x="369" y="280" width="90" height="30" as="geometry" />
        </mxCell>
        <mxCell id="I018d0j3AjAdzXmvruOZ-77" value="&lt;font face=&quot;Times New Roman&quot; style=&quot;font-size: 14px;&quot;&gt;&lt;b&gt;ATAN&lt;/b&gt;&lt;/font&gt;" style="text;html=1;align=center;verticalAlign=middle;whiteSpace=wrap;rounded=0;" vertex="1" parent="1">
          <mxGeometry x="670" y="457.5" width="60" height="30" as="geometry" />
        </mxCell>
        <mxCell id="I018d0j3AjAdzXmvruOZ-78" value="&lt;font face=&quot;Times New Roman&quot; style=&quot;font-size: 14px;&quot;&gt;&lt;b&gt;Output&lt;/b&gt;&lt;/font&gt;" style="text;html=1;align=center;verticalAlign=middle;whiteSpace=wrap;rounded=0;" vertex="1" parent="1">
          <mxGeometry x="960" y="340" width="60" height="30" as="geometry" />
        </mxCell>
        <mxCell id="I018d0j3AjAdzXmvruOZ-79" value="&lt;font style=&quot;font-size: 18px;&quot; face=&quot;Times New Roman&quot;&gt;&lt;b&gt;CODE LOOP&lt;/b&gt;&lt;/font&gt;" style="text;html=1;align=center;verticalAlign=middle;whiteSpace=wrap;rounded=0;" vertex="1" parent="1">
          <mxGeometry x="595" y="10" width="110" height="30" as="geometry" />
        </mxCell>
        <mxCell id="I018d0j3AjAdzXmvruOZ-80" value="&lt;font style=&quot;font-size: 18px;&quot; face=&quot;Times New Roman&quot;&gt;&lt;b&gt;CARRIER LOOP&lt;/b&gt;&lt;/font&gt;" style="text;html=1;align=center;verticalAlign=middle;whiteSpace=wrap;rounded=0;" vertex="1" parent="1">
          <mxGeometry x="590" y="287.5" width="170" height="30" as="geometry" />
        </mxCell>
        <mxCell id="I018d0j3AjAdzXmvruOZ-97" value="" style="rounded=1;whiteSpace=wrap;html=1;fillColor=#E0EBFF;" vertex="1" parent="1">
          <mxGeometry x="390" y="55" width="200" height="100" as="geometry" />
        </mxCell>
        <mxCell id="I018d0j3AjAdzXmvruOZ-98" value="" style="ellipse;whiteSpace=wrap;html=1;aspect=fixed;fillColor=#000000;" vertex="1" parent="1">
          <mxGeometry x="400" y="85" width="60" height="60" as="geometry" />
        </mxCell>
        <mxCell id="I018d0j3AjAdzXmvruOZ-99" value="" style="endArrow=none;html=1;rounded=0;strokeColor=#FFFFFF;strokeWidth=8;" edge="1" parent="1">
          <mxGeometry width="50" height="50" relative="1" as="geometry">
            <mxPoint x="415" y="100" as="sourcePoint" />
            <mxPoint x="445" y="130" as="targetPoint" />
          </mxGeometry>
        </mxCell>
        <mxCell id="I018d0j3AjAdzXmvruOZ-100" value="" style="endArrow=none;html=1;rounded=0;strokeColor=#FFFFFF;strokeWidth=8;" edge="1" parent="1">
          <mxGeometry width="50" height="50" relative="1" as="geometry">
            <mxPoint x="415" y="130" as="sourcePoint" />
            <mxPoint x="445" y="100" as="targetPoint" />
          </mxGeometry>
        </mxCell>
        <mxCell id="I018d0j3AjAdzXmvruOZ-101" value="" style="ellipse;whiteSpace=wrap;html=1;aspect=fixed;fillColor=#000000;" vertex="1" parent="1">
          <mxGeometry x="490" y="85" width="60" height="60" as="geometry" />
        </mxCell>
        <mxCell id="I018d0j3AjAdzXmvruOZ-102" value="" style="endArrow=none;html=1;rounded=0;strokeColor=#FFFFFF;strokeWidth=8;entryX=0.833;entryY=0.5;entryDx=0;entryDy=0;entryPerimeter=0;exitX=0.167;exitY=0.5;exitDx=0;exitDy=0;exitPerimeter=0;" edge="1" parent="1">
          <mxGeometry width="50" height="50" relative="1" as="geometry">
            <mxPoint x="500.02" y="114.91" as="sourcePoint" />
            <mxPoint x="539.98" y="114.91" as="targetPoint" />
          </mxGeometry>
        </mxCell>
        <mxCell id="I018d0j3AjAdzXmvruOZ-103" value="" style="endArrow=none;html=1;rounded=0;strokeColor=#FFFFFF;strokeWidth=8;exitX=0.5;exitY=0.833;exitDx=0;exitDy=0;exitPerimeter=0;entryX=0.5;entryY=0.167;entryDx=0;entryDy=0;entryPerimeter=0;" edge="1" parent="1" source="I018d0j3AjAdzXmvruOZ-101" target="I018d0j3AjAdzXmvruOZ-101">
          <mxGeometry width="50" height="50" relative="1" as="geometry">
            <mxPoint x="505" y="130" as="sourcePoint" />
            <mxPoint x="535" y="100" as="targetPoint" />
          </mxGeometry>
        </mxCell>
        <mxCell id="I018d0j3AjAdzXmvruOZ-104" value="" style="endArrow=classic;html=1;rounded=0;entryX=0;entryY=0.5;entryDx=0;entryDy=0;exitX=1;exitY=0.5;exitDx=0;exitDy=0;strokeWidth=3;" edge="1" parent="1" source="I018d0j3AjAdzXmvruOZ-98" target="I018d0j3AjAdzXmvruOZ-101">
          <mxGeometry width="50" height="50" relative="1" as="geometry">
            <mxPoint x="400" y="145" as="sourcePoint" />
            <mxPoint x="450" y="95" as="targetPoint" />
          </mxGeometry>
        </mxCell>
        <mxCell id="I018d0j3AjAdzXmvruOZ-105" value="" style="endArrow=classic;html=1;rounded=0;exitX=1;exitY=0.5;exitDx=0;exitDy=0;strokeWidth=3;" edge="1" parent="1" source="I018d0j3AjAdzXmvruOZ-101">
          <mxGeometry width="50" height="50" relative="1" as="geometry">
            <mxPoint x="400" y="145" as="sourcePoint" />
            <mxPoint x="590" y="115" as="targetPoint" />
          </mxGeometry>
        </mxCell>
        <mxCell id="I018d0j3AjAdzXmvruOZ-106" value="" style="endArrow=classic;html=1;rounded=0;entryX=0.5;entryY=0;entryDx=0;entryDy=0;strokeWidth=3;" edge="1" parent="1" target="I018d0j3AjAdzXmvruOZ-101">
          <mxGeometry width="50" height="50" relative="1" as="geometry">
            <mxPoint x="570" y="115" as="sourcePoint" />
            <mxPoint x="450" y="95" as="targetPoint" />
            <Array as="points">
              <mxPoint x="570" y="65" />
              <mxPoint x="520" y="65" />
            </Array>
          </mxGeometry>
        </mxCell>
        <mxCell id="I018d0j3AjAdzXmvruOZ-117" value="" style="rounded=1;whiteSpace=wrap;html=1;fillColor=#E0EBFF;" vertex="1" parent="1">
          <mxGeometry x="400" y="65" width="200" height="100" as="geometry" />
        </mxCell>
        <mxCell id="I018d0j3AjAdzXmvruOZ-118" value="" style="ellipse;whiteSpace=wrap;html=1;aspect=fixed;fillColor=#000000;" vertex="1" parent="1">
          <mxGeometry x="410" y="95" width="60" height="60" as="geometry" />
        </mxCell>
        <mxCell id="I018d0j3AjAdzXmvruOZ-119" value="" style="endArrow=none;html=1;rounded=0;strokeColor=#FFFFFF;strokeWidth=8;" edge="1" parent="1">
          <mxGeometry width="50" height="50" relative="1" as="geometry">
            <mxPoint x="425" y="110" as="sourcePoint" />
            <mxPoint x="455" y="140" as="targetPoint" />
          </mxGeometry>
        </mxCell>
        <mxCell id="I018d0j3AjAdzXmvruOZ-120" value="" style="endArrow=none;html=1;rounded=0;strokeColor=#FFFFFF;strokeWidth=8;" edge="1" parent="1">
          <mxGeometry width="50" height="50" relative="1" as="geometry">
            <mxPoint x="425" y="140" as="sourcePoint" />
            <mxPoint x="455" y="110" as="targetPoint" />
          </mxGeometry>
        </mxCell>
        <mxCell id="I018d0j3AjAdzXmvruOZ-121" value="" style="ellipse;whiteSpace=wrap;html=1;aspect=fixed;fillColor=#000000;" vertex="1" parent="1">
          <mxGeometry x="500" y="95" width="60" height="60" as="geometry" />
        </mxCell>
        <mxCell id="I018d0j3AjAdzXmvruOZ-122" value="" style="endArrow=none;html=1;rounded=0;strokeColor=#FFFFFF;strokeWidth=8;entryX=0.833;entryY=0.5;entryDx=0;entryDy=0;entryPerimeter=0;exitX=0.167;exitY=0.5;exitDx=0;exitDy=0;exitPerimeter=0;" edge="1" parent="1">
          <mxGeometry width="50" height="50" relative="1" as="geometry">
            <mxPoint x="510.02" y="124.91" as="sourcePoint" />
            <mxPoint x="549.98" y="124.91" as="targetPoint" />
          </mxGeometry>
        </mxCell>
        <mxCell id="I018d0j3AjAdzXmvruOZ-123" value="" style="endArrow=none;html=1;rounded=0;strokeColor=#FFFFFF;strokeWidth=8;exitX=0.5;exitY=0.833;exitDx=0;exitDy=0;exitPerimeter=0;entryX=0.5;entryY=0.167;entryDx=0;entryDy=0;entryPerimeter=0;" edge="1" parent="1" source="I018d0j3AjAdzXmvruOZ-121" target="I018d0j3AjAdzXmvruOZ-121">
          <mxGeometry width="50" height="50" relative="1" as="geometry">
            <mxPoint x="515" y="140" as="sourcePoint" />
            <mxPoint x="545" y="110" as="targetPoint" />
          </mxGeometry>
        </mxCell>
        <mxCell id="I018d0j3AjAdzXmvruOZ-124" value="" style="endArrow=classic;html=1;rounded=0;entryX=0;entryY=0.5;entryDx=0;entryDy=0;exitX=1;exitY=0.5;exitDx=0;exitDy=0;strokeWidth=3;" edge="1" parent="1" source="I018d0j3AjAdzXmvruOZ-118" target="I018d0j3AjAdzXmvruOZ-121">
          <mxGeometry width="50" height="50" relative="1" as="geometry">
            <mxPoint x="410" y="155" as="sourcePoint" />
            <mxPoint x="460" y="105" as="targetPoint" />
          </mxGeometry>
        </mxCell>
        <mxCell id="I018d0j3AjAdzXmvruOZ-125" value="" style="endArrow=classic;html=1;rounded=0;exitX=1;exitY=0.5;exitDx=0;exitDy=0;strokeWidth=3;" edge="1" parent="1" source="I018d0j3AjAdzXmvruOZ-121">
          <mxGeometry width="50" height="50" relative="1" as="geometry">
            <mxPoint x="410" y="155" as="sourcePoint" />
            <mxPoint x="600" y="125" as="targetPoint" />
          </mxGeometry>
        </mxCell>
        <mxCell id="I018d0j3AjAdzXmvruOZ-126" value="" style="endArrow=classic;html=1;rounded=0;entryX=0.5;entryY=0;entryDx=0;entryDy=0;strokeWidth=3;" edge="1" parent="1" target="I018d0j3AjAdzXmvruOZ-121">
          <mxGeometry width="50" height="50" relative="1" as="geometry">
            <mxPoint x="580" y="125" as="sourcePoint" />
            <mxPoint x="460" y="105" as="targetPoint" />
            <Array as="points">
              <mxPoint x="580" y="75" />
              <mxPoint x="530" y="75" />
            </Array>
          </mxGeometry>
        </mxCell>
        <mxCell id="I018d0j3AjAdzXmvruOZ-127" value="" style="rounded=1;whiteSpace=wrap;html=1;fillColor=#E0EBFF;" vertex="1" parent="1">
          <mxGeometry x="410" y="75" width="200" height="100" as="geometry" />
        </mxCell>
        <mxCell id="I018d0j3AjAdzXmvruOZ-128" value="" style="ellipse;whiteSpace=wrap;html=1;aspect=fixed;fillColor=#000000;" vertex="1" parent="1">
          <mxGeometry x="420" y="105" width="60" height="60" as="geometry" />
        </mxCell>
        <mxCell id="I018d0j3AjAdzXmvruOZ-129" value="" style="endArrow=none;html=1;rounded=0;strokeColor=#FFFFFF;strokeWidth=8;" edge="1" parent="1">
          <mxGeometry width="50" height="50" relative="1" as="geometry">
            <mxPoint x="435" y="120" as="sourcePoint" />
            <mxPoint x="465" y="150" as="targetPoint" />
          </mxGeometry>
        </mxCell>
        <mxCell id="I018d0j3AjAdzXmvruOZ-130" value="" style="endArrow=none;html=1;rounded=0;strokeColor=#FFFFFF;strokeWidth=8;" edge="1" parent="1">
          <mxGeometry width="50" height="50" relative="1" as="geometry">
            <mxPoint x="435" y="150" as="sourcePoint" />
            <mxPoint x="465" y="120" as="targetPoint" />
          </mxGeometry>
        </mxCell>
        <mxCell id="I018d0j3AjAdzXmvruOZ-131" value="" style="ellipse;whiteSpace=wrap;html=1;aspect=fixed;fillColor=#000000;" vertex="1" parent="1">
          <mxGeometry x="510" y="105" width="60" height="60" as="geometry" />
        </mxCell>
        <mxCell id="I018d0j3AjAdzXmvruOZ-132" value="" style="endArrow=none;html=1;rounded=0;strokeColor=#FFFFFF;strokeWidth=8;entryX=0.833;entryY=0.5;entryDx=0;entryDy=0;entryPerimeter=0;exitX=0.167;exitY=0.5;exitDx=0;exitDy=0;exitPerimeter=0;" edge="1" parent="1">
          <mxGeometry width="50" height="50" relative="1" as="geometry">
            <mxPoint x="520.02" y="134.91" as="sourcePoint" />
            <mxPoint x="559.98" y="134.91" as="targetPoint" />
          </mxGeometry>
        </mxCell>
        <mxCell id="I018d0j3AjAdzXmvruOZ-133" value="" style="endArrow=none;html=1;rounded=0;strokeColor=#FFFFFF;strokeWidth=8;exitX=0.5;exitY=0.833;exitDx=0;exitDy=0;exitPerimeter=0;entryX=0.5;entryY=0.167;entryDx=0;entryDy=0;entryPerimeter=0;" edge="1" parent="1" source="I018d0j3AjAdzXmvruOZ-131" target="I018d0j3AjAdzXmvruOZ-131">
          <mxGeometry width="50" height="50" relative="1" as="geometry">
            <mxPoint x="525" y="150" as="sourcePoint" />
            <mxPoint x="555" y="120" as="targetPoint" />
          </mxGeometry>
        </mxCell>
        <mxCell id="I018d0j3AjAdzXmvruOZ-134" value="" style="endArrow=classic;html=1;rounded=0;entryX=0;entryY=0.5;entryDx=0;entryDy=0;exitX=1;exitY=0.5;exitDx=0;exitDy=0;strokeWidth=3;" edge="1" parent="1" source="I018d0j3AjAdzXmvruOZ-128" target="I018d0j3AjAdzXmvruOZ-131">
          <mxGeometry width="50" height="50" relative="1" as="geometry">
            <mxPoint x="420" y="165" as="sourcePoint" />
            <mxPoint x="470" y="115" as="targetPoint" />
          </mxGeometry>
        </mxCell>
        <mxCell id="I018d0j3AjAdzXmvruOZ-135" value="" style="endArrow=classic;html=1;rounded=0;exitX=1;exitY=0.5;exitDx=0;exitDy=0;strokeWidth=3;" edge="1" parent="1" source="I018d0j3AjAdzXmvruOZ-131">
          <mxGeometry width="50" height="50" relative="1" as="geometry">
            <mxPoint x="420" y="165" as="sourcePoint" />
            <mxPoint x="610" y="135" as="targetPoint" />
          </mxGeometry>
        </mxCell>
        <mxCell id="I018d0j3AjAdzXmvruOZ-136" value="" style="endArrow=classic;html=1;rounded=0;entryX=0.5;entryY=0;entryDx=0;entryDy=0;strokeWidth=3;" edge="1" parent="1" target="I018d0j3AjAdzXmvruOZ-131">
          <mxGeometry width="50" height="50" relative="1" as="geometry">
            <mxPoint x="590" y="135" as="sourcePoint" />
            <mxPoint x="470" y="115" as="targetPoint" />
            <Array as="points">
              <mxPoint x="590" y="85" />
              <mxPoint x="540" y="85" />
            </Array>
          </mxGeometry>
        </mxCell>
        <mxCell id="I018d0j3AjAdzXmvruOZ-137" value="&lt;font style=&quot;font-size: 18px;&quot; face=&quot;Times New Roman&quot;&gt;&lt;b style=&quot;&quot;&gt;MAC&lt;/b&gt;&lt;/font&gt;" style="text;html=1;align=center;verticalAlign=middle;whiteSpace=wrap;rounded=0;" vertex="1" parent="1">
          <mxGeometry x="450" y="75" width="60" height="30" as="geometry" />
        </mxCell>
        <mxCell id="I018d0j3AjAdzXmvruOZ-138" value="" style="verticalLabelPosition=bottom;shadow=0;dashed=0;align=center;html=1;verticalAlign=top;shape=mxgraph.electrical.logic_gates.logic_gate;operation=xor;fillColor=#D4FFD1;strokeWidth=3;" vertex="1" parent="1">
          <mxGeometry x="650" y="97.5" width="100" height="60" as="geometry" />
        </mxCell>
        <mxCell id="I018d0j3AjAdzXmvruOZ-140" value="\(\phi\)" style="text;html=1;align=center;verticalAlign=middle;whiteSpace=wrap;rounded=0;strokeWidth=1;" vertex="1" parent="1">
          <mxGeometry x="670" y="112.5" width="43" height="30" as="geometry" />
        </mxCell>
        <mxCell id="I018d0j3AjAdzXmvruOZ-142" value="" style="shape=trapezoid;perimeter=trapezoidPerimeter;whiteSpace=wrap;html=1;fixedSize=1;rotation=-90;strokeWidth=2;fillColor=#E0EBFF;" vertex="1" parent="1">
          <mxGeometry x="740" y="110" width="120" height="30" as="geometry" />
        </mxCell>
        <mxCell id="I018d0j3AjAdzXmvruOZ-143" value="" style="endArrow=classic;html=1;rounded=0;entryX=0;entryY=0.5;entryDx=0;entryDy=0;exitX=1;exitY=0.5;exitDx=0;exitDy=0;strokeWidth=2;" edge="1" parent="1" source="I018d0j3AjAdzXmvruOZ-127" target="I018d0j3AjAdzXmvruOZ-141">
          <mxGeometry width="50" height="50" relative="1" as="geometry">
            <mxPoint x="650" y="230" as="sourcePoint" />
            <mxPoint x="700" y="180" as="targetPoint" />
          </mxGeometry>
        </mxCell>
        <mxCell id="I018d0j3AjAdzXmvruOZ-144" value="" style="endArrow=classic;html=1;rounded=0;entryX=0.5;entryY=0;entryDx=0;entryDy=0;exitX=1;exitY=0.5;exitDx=0;exitDy=0;strokeWidth=2;" edge="1" parent="1" source="I018d0j3AjAdzXmvruOZ-141" target="I018d0j3AjAdzXmvruOZ-142">
          <mxGeometry width="50" height="50" relative="1" as="geometry">
            <mxPoint x="650" y="230" as="sourcePoint" />
            <mxPoint x="700" y="180" as="targetPoint" />
          </mxGeometry>
        </mxCell>
        <mxCell id="I018d0j3AjAdzXmvruOZ-145" value="" style="endArrow=classic;html=1;rounded=0;exitX=0.75;exitY=1;exitDx=0;exitDy=0;entryX=0.75;entryY=1;entryDx=0;entryDy=0;strokeWidth=2;" edge="1" parent="1" source="I018d0j3AjAdzXmvruOZ-142">
          <mxGeometry width="50" height="50" relative="1" as="geometry">
            <mxPoint x="827" y="94.74999999999983" as="sourcePoint" />
            <mxPoint x="849.76" y="94.81" as="targetPoint" />
          </mxGeometry>
        </mxCell>
        <mxCell id="I018d0j3AjAdzXmvruOZ-146" value="" style="endArrow=classic;html=1;rounded=0;exitX=0.5;exitY=1;exitDx=0;exitDy=0;strokeWidth=2;" edge="1" parent="1" source="I018d0j3AjAdzXmvruOZ-142">
          <mxGeometry width="50" height="50" relative="1" as="geometry">
            <mxPoint x="840" y="127.28999999999999" as="sourcePoint" />
            <mxPoint x="850" y="125" as="targetPoint" />
          </mxGeometry>
        </mxCell>
        <mxCell id="I018d0j3AjAdzXmvruOZ-147" value="" style="endArrow=classic;html=1;rounded=0;exitX=0.25;exitY=1;exitDx=0;exitDy=0;strokeWidth=2;" edge="1" parent="1" source="I018d0j3AjAdzXmvruOZ-142">
          <mxGeometry width="50" height="50" relative="1" as="geometry">
            <mxPoint x="840" y="157.5" as="sourcePoint" />
            <mxPoint x="850" y="155" as="targetPoint" />
          </mxGeometry>
        </mxCell>
        <mxCell id="I018d0j3AjAdzXmvruOZ-148" value="&lt;font style=&quot;font-size: 14px;&quot; face=&quot;Times New Roman&quot;&gt;&lt;b style=&quot;&quot;&gt;EARLY&lt;/b&gt;&lt;/font&gt;" style="text;html=1;align=center;verticalAlign=middle;whiteSpace=wrap;rounded=0;" vertex="1" parent="1">
          <mxGeometry x="850" y="80" width="60" height="30" as="geometry" />
        </mxCell>
        <mxCell id="I018d0j3AjAdzXmvruOZ-149" value="&lt;font style=&quot;font-size: 14px;&quot; face=&quot;Times New Roman&quot;&gt;&lt;b style=&quot;&quot;&gt;PROMPT&lt;/b&gt;&lt;/font&gt;" style="text;html=1;align=center;verticalAlign=middle;whiteSpace=wrap;rounded=0;" vertex="1" parent="1">
          <mxGeometry x="850" y="110" width="60" height="30" as="geometry" />
        </mxCell>
        <mxCell id="I018d0j3AjAdzXmvruOZ-150" value="&lt;font face=&quot;Times New Roman&quot;&gt;&lt;span style=&quot;font-size: 14px;&quot;&gt;&lt;b&gt;LATE&lt;/b&gt;&lt;/span&gt;&lt;/font&gt;" style="text;html=1;align=center;verticalAlign=middle;whiteSpace=wrap;rounded=0;" vertex="1" parent="1">
          <mxGeometry x="850" y="140" width="60" height="30" as="geometry" />
        </mxCell>
        <mxCell id="I018d0j3AjAdzXmvruOZ-151" value="" style="rounded=1;whiteSpace=wrap;html=1;fillColor=#E0EBFF;" vertex="1" parent="1">
          <mxGeometry x="390" y="340" width="200" height="100" as="geometry" />
        </mxCell>
        <mxCell id="I018d0j3AjAdzXmvruOZ-152" value="" style="ellipse;whiteSpace=wrap;html=1;aspect=fixed;fillColor=#000000;" vertex="1" parent="1">
          <mxGeometry x="400" y="370" width="60" height="60" as="geometry" />
        </mxCell>
        <mxCell id="I018d0j3AjAdzXmvruOZ-153" value="" style="endArrow=none;html=1;rounded=0;strokeColor=#FFFFFF;strokeWidth=8;" edge="1" parent="1">
          <mxGeometry width="50" height="50" relative="1" as="geometry">
            <mxPoint x="415" y="385" as="sourcePoint" />
            <mxPoint x="445" y="415" as="targetPoint" />
          </mxGeometry>
        </mxCell>
        <mxCell id="I018d0j3AjAdzXmvruOZ-154" value="" style="endArrow=none;html=1;rounded=0;strokeColor=#FFFFFF;strokeWidth=8;" edge="1" parent="1">
          <mxGeometry width="50" height="50" relative="1" as="geometry">
            <mxPoint x="415" y="415" as="sourcePoint" />
            <mxPoint x="445" y="385" as="targetPoint" />
          </mxGeometry>
        </mxCell>
        <mxCell id="I018d0j3AjAdzXmvruOZ-155" value="" style="ellipse;whiteSpace=wrap;html=1;aspect=fixed;fillColor=#000000;" vertex="1" parent="1">
          <mxGeometry x="490" y="370" width="60" height="60" as="geometry" />
        </mxCell>
        <mxCell id="I018d0j3AjAdzXmvruOZ-156" value="" style="endArrow=none;html=1;rounded=0;strokeColor=#FFFFFF;strokeWidth=8;entryX=0.833;entryY=0.5;entryDx=0;entryDy=0;entryPerimeter=0;exitX=0.167;exitY=0.5;exitDx=0;exitDy=0;exitPerimeter=0;" edge="1" parent="1">
          <mxGeometry width="50" height="50" relative="1" as="geometry">
            <mxPoint x="500.02" y="399.90999999999997" as="sourcePoint" />
            <mxPoint x="539.98" y="399.90999999999997" as="targetPoint" />
          </mxGeometry>
        </mxCell>
        <mxCell id="I018d0j3AjAdzXmvruOZ-157" value="" style="endArrow=none;html=1;rounded=0;strokeColor=#FFFFFF;strokeWidth=8;exitX=0.5;exitY=0.833;exitDx=0;exitDy=0;exitPerimeter=0;entryX=0.5;entryY=0.167;entryDx=0;entryDy=0;entryPerimeter=0;" edge="1" parent="1" source="I018d0j3AjAdzXmvruOZ-155" target="I018d0j3AjAdzXmvruOZ-155">
          <mxGeometry width="50" height="50" relative="1" as="geometry">
            <mxPoint x="505" y="415" as="sourcePoint" />
            <mxPoint x="535" y="385" as="targetPoint" />
          </mxGeometry>
        </mxCell>
        <mxCell id="I018d0j3AjAdzXmvruOZ-158" value="" style="endArrow=classic;html=1;rounded=0;entryX=0;entryY=0.5;entryDx=0;entryDy=0;exitX=1;exitY=0.5;exitDx=0;exitDy=0;strokeWidth=3;" edge="1" parent="1" source="I018d0j3AjAdzXmvruOZ-152" target="I018d0j3AjAdzXmvruOZ-155">
          <mxGeometry width="50" height="50" relative="1" as="geometry">
            <mxPoint x="400" y="430" as="sourcePoint" />
            <mxPoint x="450" y="380" as="targetPoint" />
          </mxGeometry>
        </mxCell>
        <mxCell id="I018d0j3AjAdzXmvruOZ-159" value="" style="endArrow=classic;html=1;rounded=0;exitX=1;exitY=0.5;exitDx=0;exitDy=0;strokeWidth=3;" edge="1" parent="1" source="I018d0j3AjAdzXmvruOZ-155">
          <mxGeometry width="50" height="50" relative="1" as="geometry">
            <mxPoint x="400" y="430" as="sourcePoint" />
            <mxPoint x="590" y="400" as="targetPoint" />
          </mxGeometry>
        </mxCell>
        <mxCell id="I018d0j3AjAdzXmvruOZ-160" value="" style="endArrow=classic;html=1;rounded=0;entryX=0.5;entryY=0;entryDx=0;entryDy=0;strokeWidth=3;" edge="1" parent="1" target="I018d0j3AjAdzXmvruOZ-155">
          <mxGeometry width="50" height="50" relative="1" as="geometry">
            <mxPoint x="570" y="400" as="sourcePoint" />
            <mxPoint x="450" y="380" as="targetPoint" />
            <Array as="points">
              <mxPoint x="570" y="350" />
              <mxPoint x="520" y="350" />
            </Array>
          </mxGeometry>
        </mxCell>
        <mxCell id="I018d0j3AjAdzXmvruOZ-161" value="" style="rounded=1;whiteSpace=wrap;html=1;fillColor=#E0EBFF;" vertex="1" parent="1">
          <mxGeometry x="400" y="350" width="200" height="100" as="geometry" />
        </mxCell>
        <mxCell id="I018d0j3AjAdzXmvruOZ-162" value="" style="ellipse;whiteSpace=wrap;html=1;aspect=fixed;fillColor=#000000;" vertex="1" parent="1">
          <mxGeometry x="410" y="380" width="60" height="60" as="geometry" />
        </mxCell>
        <mxCell id="I018d0j3AjAdzXmvruOZ-163" value="" style="endArrow=none;html=1;rounded=0;strokeColor=#FFFFFF;strokeWidth=8;" edge="1" parent="1">
          <mxGeometry width="50" height="50" relative="1" as="geometry">
            <mxPoint x="425" y="395" as="sourcePoint" />
            <mxPoint x="455" y="425" as="targetPoint" />
          </mxGeometry>
        </mxCell>
        <mxCell id="I018d0j3AjAdzXmvruOZ-164" value="" style="endArrow=none;html=1;rounded=0;strokeColor=#FFFFFF;strokeWidth=8;" edge="1" parent="1">
          <mxGeometry width="50" height="50" relative="1" as="geometry">
            <mxPoint x="425" y="425" as="sourcePoint" />
            <mxPoint x="455" y="395" as="targetPoint" />
          </mxGeometry>
        </mxCell>
        <mxCell id="I018d0j3AjAdzXmvruOZ-165" value="" style="ellipse;whiteSpace=wrap;html=1;aspect=fixed;fillColor=#000000;" vertex="1" parent="1">
          <mxGeometry x="500" y="380" width="60" height="60" as="geometry" />
        </mxCell>
        <mxCell id="I018d0j3AjAdzXmvruOZ-166" value="" style="endArrow=none;html=1;rounded=0;strokeColor=#FFFFFF;strokeWidth=8;entryX=0.833;entryY=0.5;entryDx=0;entryDy=0;entryPerimeter=0;exitX=0.167;exitY=0.5;exitDx=0;exitDy=0;exitPerimeter=0;" edge="1" parent="1">
          <mxGeometry width="50" height="50" relative="1" as="geometry">
            <mxPoint x="510.02" y="409.90999999999997" as="sourcePoint" />
            <mxPoint x="549.98" y="409.90999999999997" as="targetPoint" />
          </mxGeometry>
        </mxCell>
        <mxCell id="I018d0j3AjAdzXmvruOZ-167" value="" style="endArrow=none;html=1;rounded=0;strokeColor=#FFFFFF;strokeWidth=8;exitX=0.5;exitY=0.833;exitDx=0;exitDy=0;exitPerimeter=0;entryX=0.5;entryY=0.167;entryDx=0;entryDy=0;entryPerimeter=0;" edge="1" parent="1" source="I018d0j3AjAdzXmvruOZ-165" target="I018d0j3AjAdzXmvruOZ-165">
          <mxGeometry width="50" height="50" relative="1" as="geometry">
            <mxPoint x="515" y="425" as="sourcePoint" />
            <mxPoint x="545" y="395" as="targetPoint" />
          </mxGeometry>
        </mxCell>
        <mxCell id="I018d0j3AjAdzXmvruOZ-168" value="" style="endArrow=classic;html=1;rounded=0;entryX=0;entryY=0.5;entryDx=0;entryDy=0;exitX=1;exitY=0.5;exitDx=0;exitDy=0;strokeWidth=3;" edge="1" parent="1" source="I018d0j3AjAdzXmvruOZ-162" target="I018d0j3AjAdzXmvruOZ-165">
          <mxGeometry width="50" height="50" relative="1" as="geometry">
            <mxPoint x="410" y="440" as="sourcePoint" />
            <mxPoint x="460" y="390" as="targetPoint" />
          </mxGeometry>
        </mxCell>
        <mxCell id="I018d0j3AjAdzXmvruOZ-169" value="" style="endArrow=classic;html=1;rounded=0;exitX=1;exitY=0.5;exitDx=0;exitDy=0;strokeWidth=3;" edge="1" parent="1" source="I018d0j3AjAdzXmvruOZ-165">
          <mxGeometry width="50" height="50" relative="1" as="geometry">
            <mxPoint x="410" y="440" as="sourcePoint" />
            <mxPoint x="600" y="410" as="targetPoint" />
          </mxGeometry>
        </mxCell>
        <mxCell id="I018d0j3AjAdzXmvruOZ-170" value="" style="endArrow=classic;html=1;rounded=0;entryX=0.5;entryY=0;entryDx=0;entryDy=0;strokeWidth=3;" edge="1" parent="1" target="I018d0j3AjAdzXmvruOZ-165">
          <mxGeometry width="50" height="50" relative="1" as="geometry">
            <mxPoint x="580" y="410" as="sourcePoint" />
            <mxPoint x="460" y="390" as="targetPoint" />
            <Array as="points">
              <mxPoint x="580" y="360" />
              <mxPoint x="530" y="360" />
            </Array>
          </mxGeometry>
        </mxCell>
        <mxCell id="I018d0j3AjAdzXmvruOZ-171" value="" style="rounded=1;whiteSpace=wrap;html=1;fillColor=#E0EBFF;" vertex="1" parent="1">
          <mxGeometry x="410" y="360" width="200" height="100" as="geometry" />
        </mxCell>
        <mxCell id="I018d0j3AjAdzXmvruOZ-172" value="" style="ellipse;whiteSpace=wrap;html=1;aspect=fixed;fillColor=#000000;" vertex="1" parent="1">
          <mxGeometry x="420" y="390" width="60" height="60" as="geometry" />
        </mxCell>
        <mxCell id="I018d0j3AjAdzXmvruOZ-173" value="" style="endArrow=none;html=1;rounded=0;strokeColor=#FFFFFF;strokeWidth=8;" edge="1" parent="1">
          <mxGeometry width="50" height="50" relative="1" as="geometry">
            <mxPoint x="435" y="405" as="sourcePoint" />
            <mxPoint x="465" y="435" as="targetPoint" />
          </mxGeometry>
        </mxCell>
        <mxCell id="I018d0j3AjAdzXmvruOZ-174" value="" style="endArrow=none;html=1;rounded=0;strokeColor=#FFFFFF;strokeWidth=8;" edge="1" parent="1">
          <mxGeometry width="50" height="50" relative="1" as="geometry">
            <mxPoint x="435" y="435" as="sourcePoint" />
            <mxPoint x="465" y="405" as="targetPoint" />
          </mxGeometry>
        </mxCell>
        <mxCell id="I018d0j3AjAdzXmvruOZ-175" value="" style="ellipse;whiteSpace=wrap;html=1;aspect=fixed;fillColor=#000000;" vertex="1" parent="1">
          <mxGeometry x="510" y="390" width="60" height="60" as="geometry" />
        </mxCell>
        <mxCell id="I018d0j3AjAdzXmvruOZ-176" value="" style="endArrow=none;html=1;rounded=0;strokeColor=#FFFFFF;strokeWidth=8;entryX=0.833;entryY=0.5;entryDx=0;entryDy=0;entryPerimeter=0;exitX=0.167;exitY=0.5;exitDx=0;exitDy=0;exitPerimeter=0;" edge="1" parent="1">
          <mxGeometry width="50" height="50" relative="1" as="geometry">
            <mxPoint x="520.02" y="419.90999999999997" as="sourcePoint" />
            <mxPoint x="559.98" y="419.90999999999997" as="targetPoint" />
          </mxGeometry>
        </mxCell>
        <mxCell id="I018d0j3AjAdzXmvruOZ-177" value="" style="endArrow=none;html=1;rounded=0;strokeColor=#FFFFFF;strokeWidth=8;exitX=0.5;exitY=0.833;exitDx=0;exitDy=0;exitPerimeter=0;entryX=0.5;entryY=0.167;entryDx=0;entryDy=0;entryPerimeter=0;" edge="1" parent="1" source="I018d0j3AjAdzXmvruOZ-175" target="I018d0j3AjAdzXmvruOZ-175">
          <mxGeometry width="50" height="50" relative="1" as="geometry">
            <mxPoint x="525" y="435" as="sourcePoint" />
            <mxPoint x="555" y="405" as="targetPoint" />
          </mxGeometry>
        </mxCell>
        <mxCell id="I018d0j3AjAdzXmvruOZ-178" value="" style="endArrow=classic;html=1;rounded=0;entryX=0;entryY=0.5;entryDx=0;entryDy=0;exitX=1;exitY=0.5;exitDx=0;exitDy=0;strokeWidth=3;" edge="1" parent="1" source="I018d0j3AjAdzXmvruOZ-172" target="I018d0j3AjAdzXmvruOZ-175">
          <mxGeometry width="50" height="50" relative="1" as="geometry">
            <mxPoint x="420" y="450" as="sourcePoint" />
            <mxPoint x="470" y="400" as="targetPoint" />
          </mxGeometry>
        </mxCell>
        <mxCell id="I018d0j3AjAdzXmvruOZ-179" value="" style="endArrow=classic;html=1;rounded=0;exitX=1;exitY=0.5;exitDx=0;exitDy=0;strokeWidth=3;" edge="1" parent="1" source="I018d0j3AjAdzXmvruOZ-175">
          <mxGeometry width="50" height="50" relative="1" as="geometry">
            <mxPoint x="420" y="450" as="sourcePoint" />
            <mxPoint x="610" y="420" as="targetPoint" />
          </mxGeometry>
        </mxCell>
        <mxCell id="I018d0j3AjAdzXmvruOZ-180" value="" style="endArrow=classic;html=1;rounded=0;entryX=0.5;entryY=0;entryDx=0;entryDy=0;strokeWidth=3;" edge="1" parent="1" target="I018d0j3AjAdzXmvruOZ-175">
          <mxGeometry width="50" height="50" relative="1" as="geometry">
            <mxPoint x="590" y="420" as="sourcePoint" />
            <mxPoint x="470" y="400" as="targetPoint" />
            <Array as="points">
              <mxPoint x="590" y="370" />
              <mxPoint x="540" y="370" />
            </Array>
          </mxGeometry>
        </mxCell>
        <mxCell id="I018d0j3AjAdzXmvruOZ-181" value="&lt;font style=&quot;font-size: 18px;&quot; face=&quot;Times New Roman&quot;&gt;&lt;b style=&quot;&quot;&gt;MAC&lt;/b&gt;&lt;/font&gt;" style="text;html=1;align=center;verticalAlign=middle;whiteSpace=wrap;rounded=0;" vertex="1" parent="1">
          <mxGeometry x="450" y="360" width="60" height="30" as="geometry" />
        </mxCell>
        <mxCell id="I018d0j3AjAdzXmvruOZ-182" value="" style="rounded=1;whiteSpace=wrap;html=1;fillColor=#E0EBFF;" vertex="1" parent="1">
          <mxGeometry x="640" y="367.5" width="120" height="85" as="geometry" />
        </mxCell>
        <mxCell id="I018d0j3AjAdzXmvruOZ-183" value="" style="verticalLabelPosition=bottom;shadow=0;dashed=0;align=center;html=1;verticalAlign=top;shape=mxgraph.electrical.logic_gates.logic_gate;operation=xor;fillColor=#D4FFD1;strokeWidth=3;" vertex="1" parent="1">
          <mxGeometry x="650" y="382.5" width="100" height="60" as="geometry" />
        </mxCell>
        <mxCell id="I018d0j3AjAdzXmvruOZ-184" value="\(\phi\)" style="text;html=1;align=center;verticalAlign=middle;whiteSpace=wrap;rounded=0;strokeWidth=1;" vertex="1" parent="1">
          <mxGeometry x="670" y="397.5" width="43" height="30" as="geometry" />
        </mxCell>
        <mxCell id="I018d0j3AjAdzXmvruOZ-185" value="" style="endArrow=classic;html=1;rounded=0;entryX=0;entryY=0.5;entryDx=0;entryDy=0;exitX=1;exitY=0.5;exitDx=0;exitDy=0;strokeWidth=2;" edge="1" parent="1" target="I018d0j3AjAdzXmvruOZ-182">
          <mxGeometry width="50" height="50" relative="1" as="geometry">
            <mxPoint x="610" y="410" as="sourcePoint" />
            <mxPoint x="700" y="465" as="targetPoint" />
          </mxGeometry>
        </mxCell>
        <mxCell id="I018d0j3AjAdzXmvruOZ-186" value="" style="endArrow=classic;html=1;rounded=0;entryX=0.5;entryY=0;entryDx=0;entryDy=0;exitX=1;exitY=0.5;exitDx=0;exitDy=0;strokeWidth=2;" edge="1" parent="1" source="I018d0j3AjAdzXmvruOZ-182">
          <mxGeometry width="50" height="50" relative="1" as="geometry">
            <mxPoint x="650" y="515" as="sourcePoint" />
            <mxPoint x="785" y="410" as="targetPoint" />
          </mxGeometry>
        </mxCell>
        <mxCell id="I018d0j3AjAdzXmvruOZ-187" value="" style="ellipse;whiteSpace=wrap;html=1;aspect=fixed;fillColor=#000000;" vertex="1" parent="1">
          <mxGeometry x="870" y="380" width="60" height="60" as="geometry" />
        </mxCell>
        <mxCell id="I018d0j3AjAdzXmvruOZ-188" value="" style="pointerEvents=1;verticalLabelPosition=bottom;shadow=0;dashed=0;align=center;html=1;verticalAlign=top;shape=mxgraph.electrical.waveforms.sine_wave;strokeColor=#FFFFFF;strokeWidth=7;" vertex="1" parent="1">
          <mxGeometry x="878.75" y="391.73" width="42.5" height="36.55" as="geometry" />
        </mxCell>
        <mxCell id="I018d0j3AjAdzXmvruOZ-189" value="&lt;font style=&quot;font-size: 14px;&quot; face=&quot;Times New Roman&quot;&gt;&lt;b&gt;NCO&lt;/b&gt;&lt;/font&gt;" style="text;html=1;align=center;verticalAlign=middle;whiteSpace=wrap;rounded=0;" vertex="1" parent="1">
          <mxGeometry x="870" y="440" width="60" height="30" as="geometry" />
        </mxCell>
        <mxCell id="I018d0j3AjAdzXmvruOZ-190" value="" style="pointerEvents=1;verticalLabelPosition=bottom;shadow=0;dashed=0;align=center;html=1;verticalAlign=top;shape=mxgraph.electrical.resistors.resistor_2;rotation=90;strokeWidth=3;" vertex="1" parent="1">
          <mxGeometry x="785" y="387.5" width="60" height="10" as="geometry" />
        </mxCell>
        <mxCell id="I018d0j3AjAdzXmvruOZ-191" value="" style="pointerEvents=1;verticalLabelPosition=bottom;shadow=0;dashed=0;align=center;html=1;verticalAlign=top;shape=mxgraph.electrical.capacitors.capacitor_2;rotation=90;strokeWidth=3;" vertex="1" parent="1">
          <mxGeometry x="790" y="427.5" width="50" height="30" as="geometry" />
        </mxCell>
        <mxCell id="I018d0j3AjAdzXmvruOZ-192" value="" style="pointerEvents=1;verticalLabelPosition=bottom;shadow=0;dashed=0;align=center;html=1;verticalAlign=top;shape=mxgraph.electrical.signal_sources.signal_ground;strokeWidth=3;" vertex="1" parent="1">
          <mxGeometry x="805" y="457.5" width="20" height="20" as="geometry" />
        </mxCell>
        <mxCell id="I018d0j3AjAdzXmvruOZ-193" value="" style="line;strokeWidth=3;html=1;" vertex="1" parent="1">
          <mxGeometry x="790" y="357.5" width="50" height="10" as="geometry" />
        </mxCell>
        <mxCell id="I018d0j3AjAdzXmvruOZ-194" value="" style="shape=waypoint;sketch=0;fillStyle=solid;size=6;pointerEvents=1;points=[];fillColor=none;resizable=0;rotatable=0;perimeter=centerPerimeter;snapToPoint=1;" vertex="1" parent="1">
          <mxGeometry x="780" y="352.5" width="20" height="20" as="geometry" />
        </mxCell>
        <mxCell id="I018d0j3AjAdzXmvruOZ-195" value="" style="shape=waypoint;sketch=0;fillStyle=solid;size=6;pointerEvents=1;points=[];fillColor=none;resizable=0;rotatable=0;perimeter=centerPerimeter;snapToPoint=1;" vertex="1" parent="1">
          <mxGeometry x="830" y="352.5" width="20" height="20" as="geometry" />
        </mxCell>
        <mxCell id="I018d0j3AjAdzXmvruOZ-199" value="" style="endArrow=classic;html=1;rounded=0;entryX=0.5;entryY=0;entryDx=0;entryDy=0;exitX=1;exitY=0.5;exitDx=0;exitDy=0;strokeWidth=2;" edge="1" parent="1">
          <mxGeometry width="50" height="50" relative="1" as="geometry">
            <mxPoint x="845" y="412.39" as="sourcePoint" />
            <mxPoint x="870" y="412.39" as="targetPoint" />
          </mxGeometry>
        </mxCell>
        <mxCell id="I018d0j3AjAdzXmvruOZ-200" value="" style="endArrow=classic;html=1;rounded=0;exitX=1;exitY=0.5;exitDx=0;exitDy=0;entryX=0.5;entryY=1;entryDx=0;entryDy=0;strokeWidth=2;" edge="1" parent="1" source="I018d0j3AjAdzXmvruOZ-187" target="I018d0j3AjAdzXmvruOZ-171">
          <mxGeometry width="50" height="50" relative="1" as="geometry">
            <mxPoint x="640" y="400" as="sourcePoint" />
            <mxPoint x="690" y="350" as="targetPoint" />
            <Array as="points">
              <mxPoint x="940" y="410" />
              <mxPoint x="940" y="490" />
              <mxPoint x="510" y="490" />
            </Array>
          </mxGeometry>
        </mxCell>
        <mxCell id="I018d0j3AjAdzXmvruOZ-201" value="" style="endArrow=classic;html=1;rounded=0;entryX=1;entryY=0.5;entryDx=0;entryDy=0;strokeWidth=3;" edge="1" parent="1" target="I018d0j3AjAdzXmvruOZ-3">
          <mxGeometry width="50" height="50" relative="1" as="geometry">
            <mxPoint x="420" y="205" as="sourcePoint" />
            <mxPoint x="610" y="250" as="targetPoint" />
          </mxGeometry>
        </mxCell>
        <mxCell id="I018d0j3AjAdzXmvruOZ-202" value="" style="endArrow=classic;html=1;rounded=0;entryX=1;entryY=0.5;entryDx=0;entryDy=0;strokeWidth=3;" edge="1" parent="1">
          <mxGeometry width="50" height="50" relative="1" as="geometry">
            <mxPoint x="420" y="320" as="sourcePoint" />
            <mxPoint x="360" y="320" as="targetPoint" />
          </mxGeometry>
        </mxCell>
        <mxCell id="I018d0j3AjAdzXmvruOZ-203" value="" style="endArrow=classic;html=1;rounded=0;strokeWidth=2;" edge="1" parent="1">
          <mxGeometry width="50" height="50" relative="1" as="geometry">
            <mxPoint x="620" y="410" as="sourcePoint" />
            <mxPoint x="970" y="340" as="targetPoint" />
            <Array as="points">
              <mxPoint x="620" y="340" />
            </Array>
          </mxGeometry>
        </mxCell>
        <mxCell id="I018d0j3AjAdzXmvruOZ-204" value="&lt;b style=&quot;border-color: var(--border-color); font-family: &amp;quot;Times New Roman&amp;quot;; font-size: 14px;&quot;&gt;Carrier frequency&lt;/b&gt;" style="text;html=1;align=center;verticalAlign=middle;whiteSpace=wrap;rounded=0;" vertex="1" parent="1">
          <mxGeometry x="353.5" y="210" width="121" height="30" as="geometry" />
        </mxCell>
      </root>
    </mxGraphModel>
  </diagram>
</mxfile>
